<svg width="55" height="39" viewBox="0 0 55 39" fill="none" xmlns="http://www.w3.org/2000/svg">
<path d="M8.74186 18.4102C5.32724 18.4102 2.54932 15.6577 2.54932 12.2749C2.54932 8.89218 5.32724 6.13922 8.74186 6.13922C12.1565 6.13922 14.934 8.89175 14.934 12.2749C14.934 15.6581 12.1565 18.4102 8.74186 18.4102ZM8.74186 7.86117C6.27647 7.86117 4.27126 9.8414 4.27126 12.2749C4.27126 14.7085 6.27647 16.6883 8.74186 16.6883C11.2068 16.6883 13.212 14.7085 13.212 12.2749C13.212 9.8414 11.2068 7.86117 8.74186 7.86117Z" fill="#61A60E"/>
<path d="M10.8499 35.8231H2.52573C1.56911 35.8231 0.791016 34.82 0.791016 33.5871V30.7709C0.791016 25.0054 4.44194 20.3148 8.92969 20.3148C10.6949 20.3148 12.3749 21.0294 13.7871 22.3812C14.0821 22.6635 14.1448 23.2025 13.9271 23.5852C13.7094 23.9675 13.2943 24.0493 12.999 23.7669C11.8168 22.6351 10.4096 22.0368 8.92969 22.0368C5.17391 22.0368 2.11826 25.955 2.11826 30.7709V33.5871C2.11826 33.8704 2.30109 34.1011 2.52573 34.1011H10.8502C11.2165 34.1011 11.5138 34.4869 11.5138 34.9621C11.5138 35.4374 11.2165 35.8231 10.8499 35.8231Z" fill="#61A60E"/>
<path d="M52.4618 35.1717H44.2577C43.8967 35.1717 43.6037 34.786 43.6037 34.3107C43.6037 33.8355 43.8967 33.4498 44.2577 33.4498H52.4622C52.6836 33.4498 52.8638 33.219 52.8638 32.9358V30.1195C52.8638 25.3033 49.8522 21.3854 46.1505 21.3854C44.6044 21.3854 43.0951 22.0862 41.9005 23.3592C41.6199 23.6579 41.2082 23.6015 40.9806 23.2318C40.7536 22.8624 40.7965 22.32 41.0777 22.0208C42.5042 20.5007 44.3058 19.6635 46.1505 19.6635C50.5733 19.6635 54.1715 24.354 54.1715 30.1195V32.9358C54.1715 34.1683 53.4047 35.1717 52.4618 35.1717Z" fill="#61A60E"/>
<path d="M46.2849 17.5128C42.8703 17.5128 40.0928 14.7602 40.0928 11.3775C40.0928 7.99472 42.8703 5.24176 46.2849 5.24176C49.6995 5.24176 52.4774 7.99429 52.4774 11.3775C52.4774 14.7607 49.6991 17.5128 46.2849 17.5128ZM46.2849 6.9637C43.8199 6.9637 41.8147 8.94394 41.8147 11.3775C41.8147 13.811 43.8199 15.7908 46.2849 15.7908C48.7503 15.7908 50.7555 13.811 50.7555 11.3775C50.7555 8.94394 48.7499 6.9637 46.2849 6.9637Z" fill="#61A60E"/>
<path d="M39.1664 38.6247H15.7954C14.243 38.6247 12.98 37.3711 12.98 35.8299V31.869C12.98 23.9528 19.4846 17.5128 27.4809 17.5128C35.4772 17.5128 41.9818 23.9528 41.9818 31.869V35.8299C41.9818 37.3711 40.7188 38.6247 39.1664 38.6247ZM27.4809 19.2351C20.4347 19.2351 14.7019 24.9029 14.7019 31.8695V35.8304C14.7019 36.4219 15.1927 36.9031 15.7954 36.9031H39.166C39.7687 36.9031 40.2595 36.4219 40.2595 35.8304V31.8695C40.2599 24.9029 34.5271 19.2351 27.4809 19.2351Z" fill="#61A60E"/>
<path d="M27.1817 16.5067C22.7941 16.5067 19.2241 12.9707 19.2241 8.62408C19.2241 4.27747 22.7937 0.741882 27.1817 0.741882C31.5696 0.741882 35.1392 4.2779 35.1392 8.62451C35.1392 12.9711 31.5692 16.5067 27.1817 16.5067ZM27.1817 2.46383C23.7434 2.46383 20.9461 5.22755 20.9461 8.62451C20.9461 12.0215 23.7434 14.7852 27.1817 14.7852C30.62 14.7852 33.4173 12.0215 33.4173 8.62451C33.4173 5.22755 30.62 2.46383 27.1817 2.46383Z" fill="#61A60E"/>
</svg>
