<svg width="98" height="98" viewBox="0 0 98 98" fill="none" xmlns="http://www.w3.org/2000/svg">
<path d="M60.3646 70.8662C60.3159 70.9659 60.302 71.1271 60.302 71.1271C60.302 71.1271 60.3032 71.1213 60.3646 70.8662Z" fill="white"/>
<path d="M48.9999 0.581543C22.3034 0.581543 0.584229 22.3008 0.584229 48.9972C0.584229 75.6937 22.3034 97.4129 48.9999 97.4129C75.6964 97.4129 97.4156 75.6937 97.4156 48.9972C97.4156 22.3008 75.6964 0.581543 48.9999 0.581543ZM48.9999 92.7743C40.9994 92.7743 33.4999 90.6069 27.0383 86.8426C27.0395 86.8357 27.0488 86.8079 27.0488 86.8079V85.6679L26.8864 84.3644L26.397 83.5504L26.2335 81.4317H25.7453L25.5818 80.2917H26.3959L28.0252 78.6624V77.8472L27.8617 76.8696H27.3723L27.5358 74.2627L28.7488 71.9816C28.7488 71.9816 28.5134 70.8417 28.6758 69.7006C28.8381 68.5595 28.6758 68.0713 28.6758 68.0713C28.6758 68.0713 28.6758 68.0713 27.8617 67.7454C27.0464 67.4195 26.7217 66.7678 26.2324 66.4419C25.7442 66.1161 25.2548 65.1385 25.2548 65.1385C25.2548 65.1385 24.1148 64.1609 23.1372 63.835C22.1596 63.5092 23.1372 63.835 22.4844 63.6715C21.8326 63.508 19.8774 62.6939 19.5527 62.2057C19.2269 61.7163 17.434 60.9023 16.9458 60.4141C16.4565 59.9247 16.1225 59.5988 16.1225 59.5988L16.0019 58.7836C16.0019 58.7836 16.2929 57.9695 15.9682 57.3178C15.6424 56.666 16.1318 56.5025 15.9682 56.0143C15.8047 55.5261 15.9682 55.0367 15.9682 55.0367L15.153 53.7333C15.153 53.7333 15.153 53.7333 14.8283 53.0815C14.5024 52.4298 14.5024 51.9416 13.8507 51.4522C13.1978 50.9628 12.7096 49.8229 11.8944 49.5678C11.0803 49.3127 9.93918 46.889 9.93918 46.889C9.93918 46.889 9.61332 45.749 8.47222 44.7714C7.33227 43.7938 7.33227 44.7714 6.51703 45.749C5.7018 46.7266 5.7018 45.749 5.7018 45.749C5.7018 45.749 5.52669 46.1851 5.29128 46.5225C5.40492 44.5082 5.65657 42.5321 6.03462 40.599L6.14942 40.5225V40.0099C6.17378 39.8893 6.20625 39.7722 6.23176 39.6527H7.23602V38.9314V38.3365V37.4702L6.88928 37.0446C7.71612 34.1397 8.83171 31.3577 10.2094 28.7322C13.8577 25.3182 20.1778 20.0881 25.2107 19.5071L27.0951 14.4336C27.0951 14.4336 27.0951 15.5933 27.8199 14.4336C28.5447 13.274 27.0951 14.7236 28.5447 13.274C29.9943 11.8244 29.9943 11.5345 30.864 11.0996C31.7338 10.6648 32.1686 10.3748 32.6035 10.0849C33.0384 9.79502 34.6329 8.92528 34.6329 8.92528H35.3577L34.488 9.93998L33.6182 10.8097L32.6035 11.6795L31.8787 12.1143L31.4439 13.129L31.8787 14.1437C31.8787 14.1437 32.1686 14.1437 33.1833 13.9988C34.1981 13.8538 35.6476 13.8538 35.3577 13.4189C35.0678 12.9841 35.9375 12.4042 36.3724 12.1143C36.8073 11.8244 36.8073 11.8244 36.8073 11.8244L37.9669 11.2446C37.9669 11.2446 37.9669 11.2446 38.8367 10.8097C39.7064 10.3748 39.7064 10.3748 39.7064 10.3748L41.011 8.92528H41.7358L42.6056 7.33075V6.461V5.69099C44.6918 5.38484 46.8244 5.22017 48.9953 5.22017C50.2013 5.22017 51.3923 5.28279 52.5751 5.37904C52.9485 5.76521 52.9717 5.78956 52.9717 5.78956L53.6641 7.07678L54.7692 7.36206L55.0452 8.07757L54.354 9.07835L52.9717 8.93455C52.9485 8.93455 52.8105 8.93455 52.1426 8.93455C51.1743 8.93455 50.2083 8.93455 50.2083 8.93455H49.0637C49.0637 8.93455 48.964 9.36479 48.4108 9.7927C47.8577 10.2218 47.7197 9.68253 47.4425 10.3806C47.1665 11.0788 46.8893 12.2233 46.8893 12.2233L47.0285 13.0803L47.9956 13.6532C47.9956 13.6532 48.6091 13.6532 49.0625 13.6532C49.516 13.6532 51.0363 13.797 51.0363 13.797C51.4491 12.9388 50.6223 11.509 50.6223 11.509H49.7931L50.4843 10.3806H51.1743H52.0046L52.9717 11.6516L53.2477 12.7951V13.9385L52.6992 14.9381L51.7321 15.3672H50.3509L49.0683 16.0827L47.5863 17.2261C47.5863 17.2261 47.5863 17.2261 46.8951 18.3707C46.204 19.5141 45.652 20.3723 45.652 20.3723L45.79 21.5157L46.066 22.3738C45.0977 22.9455 46.48 22.5165 44.4077 22.9455C42.3342 23.3746 42.3342 23.3746 42.3342 23.3746C42.3342 23.3746 42.0582 23.5172 41.781 23.8025C41.5039 24.089 41.919 22.6591 41.5039 24.089C41.0899 25.5188 40.6747 26.2343 40.6747 26.2343L41.781 27.0925C41.781 27.0925 40.8127 27.808 41.781 27.9506C42.7482 28.0932 41.3671 27.9506 42.7482 28.0933C44.1305 28.237 45.3737 28.0933 45.3737 28.0933L46.066 27.0925L47.4471 25.8064L48.4154 24.5203L49.0683 23.6622L50.2129 23.0905C50.2129 23.0905 50.9029 22.3761 51.1789 22.9467C51.4549 23.5172 51.3181 25.2347 51.3181 25.2347L52.9764 25.6638H53.6687C53.6687 25.6638 53.9447 25.8076 54.3599 26.0928C54.7738 26.3781 55.603 26.5219 55.603 26.5219L56.1562 25.3773L57.1233 24.3765C57.1233 24.3765 57.6776 24.2327 58.0916 24.2327C58.5068 24.2327 59.1968 24.6618 59.1968 24.6618L60.4956 24.9483H63.8969L65.278 24.3765L65.9703 24.8056C66.3843 25.949 66.2452 26.3781 65.9703 26.8072C65.6932 27.2363 65.6932 27.2363 65.6932 27.2363C65.6932 27.2363 65.5563 27.3789 64.312 27.9506C63.0689 28.5223 60.4422 29.094 59.8891 29.094C59.3359 29.094 59.3359 29.094 59.3359 29.094C59.3359 29.094 59.0599 28.9514 58.0928 28.8088C57.1245 28.665 55.4662 27.9506 55.4662 27.9506L53.9459 27.3789H53.2535H52.5635C52.5635 27.3789 51.1801 27.2363 50.3521 27.2363C49.5218 27.2363 49.0695 27.5227 49.0695 27.5227L48.4166 27.6653L46.4811 28.9526L44.8228 29.9533L43.9937 30.525L43.1634 31.1466L42.4722 32.0987L40.3987 33.8138C39.8456 34.5293 39.8456 34.5293 39.8456 34.5293L37.9101 38.66V39.8197L37.081 40.534V42.5368C37.081 42.5368 37.7721 46.112 37.081 46.5399C36.3898 46.969 37.081 48.2562 37.081 48.2562L36.7736 49.1758L38.5862 51.1148L40.3987 52.5446L44.4077 54.9753H45.0977H47.0343H47.8634C47.8634 54.9753 47.5863 54.2598 49.6598 53.9745C51.7332 53.6892 51.7332 53.688 51.7332 53.688L52.7004 53.4028L54.0827 53.5466L54.9118 53.6892L55.879 54.2609L57.6765 54.9764H58.2308V55.8346V57.2644V58.8358V59.5513V60.6947L59.6108 61.8381V62.8389H60.1639L60.9942 64.554C60.9942 64.554 61.2702 65.6986 60.9942 66.842C60.7182 67.9866 60.7182 67.9866 60.7182 67.9866L60.3043 69.2727C60.3043 69.2727 60.5802 69.9882 60.4422 70.5599C60.4098 70.6944 60.3854 70.793 60.3669 70.8718C60.4562 70.6886 60.6626 70.706 61.1183 72.2762C61.8246 74.7068 61.8246 74.7068 61.8246 74.7068C61.8246 74.7068 61.9614 75.2785 61.8246 75.8502C61.6854 76.4231 61.2702 78.5673 61.2702 78.5673L61.8849 79.4255V79.9972H62.5146C62.5146 79.9972 61.5474 80.4263 62.5146 80.4263C63.4817 80.4263 63.4817 80.4263 63.4817 80.4263L64.4489 79.7119C64.4489 79.7119 64.4489 78.9976 65.692 78.4258C66.9363 77.8541 66.9363 77.8541 66.9363 77.8541L67.6275 77.2813L68.3186 76.4243C68.3186 76.4243 69.287 75.2797 69.8401 74.8518C70.3933 74.4227 70.3933 74.4227 70.3933 74.4227C70.3933 74.4227 70.6693 74.2801 71.4996 73.2793C72.3287 72.2785 72.3287 72.2785 72.3287 72.2785V71.7056L73.8502 69.5603L74.5402 68.2742L75.3705 65.3797C75.3705 65.3797 76.7517 61.554 76.7517 61.1261C76.7517 60.697 76.7517 59.5536 76.7517 59.5536L77.582 58.409C77.582 58.409 77.996 55.1214 78.1351 54.4059C78.2731 53.6904 78.2731 53.6904 78.2731 53.6904C78.2731 53.6904 78.5491 53.9768 79.1023 51.8326C79.6554 49.6872 79.6554 49.6872 79.6554 49.6872V48.5438C79.6554 48.5438 79.1023 48.2574 79.6554 47.5419C80.2098 46.8275 80.2098 46.8275 80.2098 46.8275V45.5415L80.3466 43.5399L78.4123 42.8244L77.168 41.9674L76.3388 41.3945L75.2337 40.1085L74.4034 38.6624C73.4362 38.2495 74.2654 38.6786 73.4362 38.2495C72.607 37.8204 72.6071 37.8205 72.6071 37.8205C72.6071 37.8205 70.8096 35.6762 70.8096 35.2472C70.8096 34.8181 70.8096 34.8181 70.8096 34.8181L70.6716 33.8173C70.6716 33.8173 71.2247 32.5301 72.0539 33.8173C72.8819 35.1045 72.3299 33.8173 72.8819 35.1045C73.4362 36.3906 72.1919 35.1045 73.4362 36.3906C74.6794 37.6778 74.9577 36.3755 74.9577 36.3755C74.9577 36.3755 75.2337 35.9314 75.7868 36.3755C76.34 36.8197 77.03 38.6624 77.03 38.6624H77.5843H78.2755C78.2755 38.6624 78.5515 38.6484 78.9666 38.6624C79.3806 38.6786 79.7958 38.6624 79.7958 38.6624C79.7958 38.6624 79.7958 37.2476 80.3489 36.8197C80.9021 36.3906 80.7641 37.3914 80.9021 36.3906C81.0401 35.3898 82.0084 35.3898 80.9021 34.2464C79.7969 33.103 79.2438 32.8165 79.1058 32.2437C78.9678 31.672 78.8298 32.057 78.4146 31.1501C77.9995 30.2433 77.3095 29.3851 76.4791 29.0987C75.65 28.8134 75.374 28.956 74.9588 28.3832C74.5437 27.8115 73.5777 27.0971 73.5777 27.0971L73.8537 26.3816H74.8208C74.8208 26.3816 75.0968 26.9545 75.512 27.2397C75.9272 27.525 76.6171 28.2405 76.6171 28.2405C76.6171 28.2405 77.5855 28.3832 78.4146 28.3832C79.2438 28.3832 78.2766 28.8134 79.2438 28.3832C80.2121 27.9541 81.4262 27.5262 81.4262 27.5262L82.9755 27.3824L83.5299 26.3816L84.221 24.8091V23.8083C84.221 23.8083 84.1422 23.3955 83.9891 22.7171C88.3795 28.5455 91.3413 35.5023 92.3723 43.0667C92.1438 43.6013 92.2215 44.8109 92.7352 47.0038C92.7642 47.652 92.7839 48.3026 92.7851 48.9578C92.2424 49.6907 90.707 49.1144 90.707 49.1144L89.1101 51.3838L87.0807 53.9119V55.1527V59.7913V61.2409H85.6312V63.5602L83.8917 68.1988V69.6484V72.9476H85.0513L85.2705 73.5031C77.3837 85.1206 64.0685 92.7743 48.9999 92.7743Z" fill="white"/>
<path d="M60.3646 70.8662C60.3159 70.9659 60.302 71.1271 60.302 71.1271C60.302 71.1271 60.3032 71.1213 60.3646 70.8662Z" fill="white"/>
<path d="M48.9999 0.581543C22.3034 0.581543 0.584229 22.3008 0.584229 48.9972C0.584229 75.6937 22.3034 97.4129 48.9999 97.4129C75.6964 97.4129 97.4156 75.6937 97.4156 48.9972C97.4156 22.3008 75.6964 0.581543 48.9999 0.581543ZM48.9999 92.7743C40.9994 92.7743 33.4999 90.6069 27.0383 86.8426C27.0395 86.8357 27.0488 86.8079 27.0488 86.8079V85.6679L26.8864 84.3644L26.397 83.5504L26.2335 81.4317H25.7453L25.5818 80.2917H26.3959L28.0252 78.6624V77.8472L27.8617 76.8696H27.3723L27.5358 74.2627L28.7488 71.9816C28.7488 71.9816 28.5134 70.8417 28.6758 69.7006C28.8381 68.5595 28.6758 68.0713 28.6758 68.0713C28.6758 68.0713 28.6758 68.0713 27.8617 67.7454C27.0464 67.4195 26.7217 66.7678 26.2324 66.4419C25.7442 66.1161 25.2548 65.1385 25.2548 65.1385C25.2548 65.1385 24.1148 64.1609 23.1372 63.835C22.1596 63.5092 23.1372 63.835 22.4844 63.6715C21.8326 63.508 19.8774 62.6939 19.5527 62.2057C19.2269 61.7163 17.434 60.9023 16.9458 60.4141C16.4565 59.9247 16.1225 59.5988 16.1225 59.5988L16.0019 58.7836C16.0019 58.7836 16.2929 57.9695 15.9682 57.3178C15.6424 56.666 16.1318 56.5025 15.9682 56.0143C15.8047 55.5261 15.9682 55.0367 15.9682 55.0367L15.153 53.7333C15.153 53.7333 15.153 53.7333 14.8283 53.0815C14.5024 52.4298 14.5024 51.9416 13.8507 51.4522C13.1978 50.9628 12.7096 49.8229 11.8944 49.5678C11.0803 49.3127 9.93918 46.889 9.93918 46.889C9.93918 46.889 9.61332 45.749 8.47222 44.7714C7.33227 43.7938 7.33227 44.7714 6.51703 45.749C5.7018 46.7266 5.7018 45.749 5.7018 45.749C5.7018 45.749 5.52669 46.1851 5.29128 46.5225C5.40492 44.5082 5.65657 42.5321 6.03462 40.599L6.14942 40.5225V40.0099C6.17378 39.8893 6.20625 39.7722 6.23176 39.6527H7.23602V38.9314V38.3365V37.4702L6.88928 37.0446C7.71612 34.1397 8.83171 31.3577 10.2094 28.7322C13.8577 25.3182 20.1778 20.0881 25.2107 19.5071L27.0951 14.4336C27.0951 14.4336 27.0951 15.5933 27.8199 14.4336C28.5447 13.274 27.0951 14.7236 28.5447 13.274C29.9943 11.8244 29.9943 11.5345 30.864 11.0996C31.7338 10.6648 32.1686 10.3748 32.6035 10.0849C33.0384 9.79502 34.6329 8.92528 34.6329 8.92528H35.3577L34.488 9.93998L33.6182 10.8097L32.6035 11.6795L31.8787 12.1143L31.4439 13.129L31.8787 14.1437C31.8787 14.1437 32.1686 14.1437 33.1833 13.9988C34.1981 13.8538 35.6476 13.8538 35.3577 13.4189C35.0678 12.9841 35.9375 12.4042 36.3724 12.1143C36.8073 11.8244 36.8073 11.8244 36.8073 11.8244L37.9669 11.2446C37.9669 11.2446 37.9669 11.2446 38.8367 10.8097C39.7064 10.3748 39.7064 10.3748 39.7064 10.3748L41.011 8.92528H41.7358L42.6056 7.33075V6.461V5.69099C44.6918 5.38484 46.8244 5.22017 48.9953 5.22017C50.2013 5.22017 51.3923 5.28279 52.5751 5.37904C52.9485 5.76521 52.9717 5.78956 52.9717 5.78956L53.6641 7.07678L54.7692 7.36206L55.0452 8.07757L54.354 9.07835L52.9717 8.93455C52.9485 8.93455 52.8105 8.93455 52.1426 8.93455C51.1743 8.93455 50.2083 8.93455 50.2083 8.93455H49.0637C49.0637 8.93455 48.964 9.36479 48.4108 9.7927C47.8577 10.2218 47.7197 9.68253 47.4425 10.3806C47.1665 11.0788 46.8893 12.2233 46.8893 12.2233L47.0285 13.0803L47.9956 13.6532C47.9956 13.6532 48.6091 13.6532 49.0625 13.6532C49.516 13.6532 51.0363 13.797 51.0363 13.797C51.4491 12.9388 50.6223 11.509 50.6223 11.509H49.7931L50.4843 10.3806H51.1743H52.0046L52.9717 11.6516L53.2477 12.7951V13.9385L52.6992 14.9381L51.7321 15.3672H50.3509L49.0683 16.0827L47.5863 17.2261C47.5863 17.2261 47.5863 17.2261 46.8951 18.3707C46.204 19.5141 45.652 20.3723 45.652 20.3723L45.79 21.5157L46.066 22.3738C45.0977 22.9455 46.48 22.5165 44.4077 22.9455C42.3342 23.3746 42.3342 23.3746 42.3342 23.3746C42.3342 23.3746 42.0582 23.5172 41.781 23.8025C41.5039 24.089 41.919 22.6591 41.5039 24.089C41.0899 25.5188 40.6747 26.2343 40.6747 26.2343L41.781 27.0925C41.781 27.0925 40.8127 27.808 41.781 27.9506C42.7482 28.0932 41.3671 27.9506 42.7482 28.0933C44.1305 28.237 45.3737 28.0933 45.3737 28.0933L46.066 27.0925L47.4471 25.8064L48.4154 24.5203L49.0683 23.6622L50.2129 23.0905C50.2129 23.0905 50.9029 22.3761 51.1789 22.9467C51.4549 23.5172 51.3181 25.2347 51.3181 25.2347L52.9764 25.6638H53.6687C53.6687 25.6638 53.9447 25.8076 54.3599 26.0928C54.7738 26.3781 55.603 26.5219 55.603 26.5219L56.1562 25.3773L57.1233 24.3765C57.1233 24.3765 57.6776 24.2327 58.0916 24.2327C58.5068 24.2327 59.1968 24.6618 59.1968 24.6618L60.4956 24.9483H63.8969L65.278 24.3765L65.9703 24.8056C66.3843 25.949 66.2452 26.3781 65.9703 26.8072C65.6932 27.2363 65.6932 27.2363 65.6932 27.2363C65.6932 27.2363 65.5563 27.3789 64.312 27.9506C63.0689 28.5223 60.4422 29.094 59.8891 29.094C59.3359 29.094 59.3359 29.094 59.3359 29.094C59.3359 29.094 59.0599 28.9514 58.0928 28.8088C57.1245 28.665 55.4662 27.9506 55.4662 27.9506L53.9459 27.3789H53.2535H52.5635C52.5635 27.3789 51.1801 27.2363 50.3521 27.2363C49.5218 27.2363 49.0695 27.5227 49.0695 27.5227L48.4166 27.6653L46.4811 28.9526L44.8228 29.9533L43.9937 30.525L43.1634 31.1466L42.4722 32.0987L40.3987 33.8138C39.8456 34.5293 39.8456 34.5293 39.8456 34.5293L37.9101 38.66V39.8197L37.081 40.534V42.5368C37.081 42.5368 37.7721 46.112 37.081 46.5399C36.3898 46.969 37.081 48.2562 37.081 48.2562L36.7736 49.1758L38.5862 51.1148L40.3987 52.5446L44.4077 54.9753H45.0977H47.0343H47.8634C47.8634 54.9753 47.5863 54.2598 49.6598 53.9745C51.7332 53.6892 51.7332 53.688 51.7332 53.688L52.7004 53.4028L54.0827 53.5466L54.9118 53.6892L55.879 54.2609L57.6765 54.9764H58.2308V55.8346V57.2644V58.8358V59.5513V60.6947L59.6108 61.8381V62.8389H60.1639L60.9942 64.554C60.9942 64.554 61.2702 65.6986 60.9942 66.842C60.7182 67.9866 60.7182 67.9866 60.7182 67.9866L60.3043 69.2727C60.3043 69.2727 60.5802 69.9882 60.4422 70.5599C60.4098 70.6944 60.3854 70.793 60.3669 70.8718C60.4562 70.6886 60.6626 70.706 61.1183 72.2762C61.8246 74.7068 61.8246 74.7068 61.8246 74.7068C61.8246 74.7068 61.9614 75.2785 61.8246 75.8502C61.6854 76.4231 61.2702 78.5673 61.2702 78.5673L61.8849 79.4255V79.9972H62.5146C62.5146 79.9972 61.5474 80.4263 62.5146 80.4263C63.4817 80.4263 63.4817 80.4263 63.4817 80.4263L64.4489 79.7119C64.4489 79.7119 64.4489 78.9976 65.692 78.4258C66.9363 77.8541 66.9363 77.8541 66.9363 77.8541L67.6275 77.2813L68.3186 76.4243C68.3186 76.4243 69.287 75.2797 69.8401 74.8518C70.3933 74.4227 70.3933 74.4227 70.3933 74.4227C70.3933 74.4227 70.6693 74.2801 71.4996 73.2793C72.3287 72.2785 72.3287 72.2785 72.3287 72.2785V71.7056L73.8502 69.5603L74.5402 68.2742L75.3705 65.3797C75.3705 65.3797 76.7517 61.554 76.7517 61.1261C76.7517 60.697 76.7517 59.5536 76.7517 59.5536L77.582 58.409C77.582 58.409 77.996 55.1214 78.1351 54.4059C78.2731 53.6904 78.2731 53.6904 78.2731 53.6904C78.2731 53.6904 78.5491 53.9768 79.1023 51.8326C79.6554 49.6872 79.6554 49.6872 79.6554 49.6872V48.5438C79.6554 48.5438 79.1023 48.2574 79.6554 47.5419C80.2098 46.8275 80.2098 46.8275 80.2098 46.8275V45.5415L80.3466 43.5399L78.4123 42.8244L77.168 41.9674L76.3388 41.3945L75.2337 40.1085L74.4034 38.6624C73.4362 38.2495 74.2654 38.6786 73.4362 38.2495C72.607 37.8204 72.6071 37.8205 72.6071 37.8205C72.6071 37.8205 70.8096 35.6762 70.8096 35.2472C70.8096 34.8181 70.8096 34.8181 70.8096 34.8181L70.6716 33.8173C70.6716 33.8173 71.2247 32.5301 72.0539 33.8173C72.8819 35.1045 72.3299 33.8173 72.8819 35.1045C73.4362 36.3906 72.1919 35.1045 73.4362 36.3906C74.6794 37.6778 74.9577 36.3755 74.9577 36.3755C74.9577 36.3755 75.2337 35.9314 75.7868 36.3755C76.34 36.8197 77.03 38.6624 77.03 38.6624H77.5843H78.2755C78.2755 38.6624 78.5515 38.6484 78.9666 38.6624C79.3806 38.6786 79.7958 38.6624 79.7958 38.6624C79.7958 38.6624 79.7958 37.2476 80.3489 36.8197C80.9021 36.3906 80.7641 37.3914 80.9021 36.3906C81.0401 35.3898 82.0084 35.3898 80.9021 34.2464C79.7969 33.103 79.2438 32.8165 79.1058 32.2437C78.9678 31.672 78.8298 32.057 78.4146 31.1501C77.9995 30.2433 77.3095 29.3851 76.4791 29.0987C75.65 28.8134 75.374 28.956 74.9588 28.3832C74.5437 27.8115 73.5777 27.0971 73.5777 27.0971L73.8537 26.3816H74.8208C74.8208 26.3816 75.0968 26.9545 75.512 27.2397C75.9272 27.525 76.6171 28.2405 76.6171 28.2405C76.6171 28.2405 77.5855 28.3832 78.4146 28.3832C79.2438 28.3832 78.2766 28.8134 79.2438 28.3832C80.2121 27.9541 81.4262 27.5262 81.4262 27.5262L82.9755 27.3824L83.5299 26.3816L84.221 24.8091V23.8083C84.221 23.8083 84.1422 23.3955 83.9891 22.7171C88.3795 28.5455 91.3413 35.5023 92.3723 43.0667C92.1438 43.6013 92.2215 44.8109 92.7352 47.0038C92.7642 47.652 92.7839 48.3026 92.7851 48.9578C92.2424 49.6907 90.707 49.1144 90.707 49.1144L89.1101 51.3838L87.0807 53.9119V55.1527V59.7913V61.2409H85.6312V63.5602L83.8917 68.1988V69.6484V72.9476H85.0513L85.2705 73.5031C77.3837 85.1206 64.0685 92.7743 48.9999 92.7743Z" fill="white"/>
</svg>
