<svg width="44" height="46" viewBox="0 0 44 46" fill="none" xmlns="http://www.w3.org/2000/svg">
<path d="M26.0502 42.7577H18.0247C16.6248 42.7577 15.484 41.6216 15.484 40.2276V34.6713C15.484 32.4935 14.5624 30.39 12.9583 28.9067C11.6232 27.6764 10.577 26.2129 9.83974 24.5659C9.07754 22.8593 8.68896 21.0436 8.68896 19.1584C8.68896 15.651 10.049 12.3371 12.5199 9.83679C14.9859 7.33646 18.2788 5.92755 21.7909 5.86306C25.3927 5.79856 28.7902 7.14298 31.3608 9.64827C33.9463 12.1635 35.376 15.5419 35.391 19.1535C35.4059 22.8891 33.8865 26.3568 31.1067 28.9166C29.5076 30.39 28.5909 32.4885 28.5909 34.6713V40.2276C28.5909 41.6216 27.4501 42.7577 26.0502 42.7577ZM22.0449 7.35134C21.9702 7.35134 21.8955 7.35134 21.8208 7.35134C15.4043 7.46545 10.1835 12.7638 10.1835 19.1584C10.1835 22.4327 11.5634 25.5878 13.9746 27.8153C15.8826 29.5814 16.9785 32.0817 16.9785 34.6713V40.2276C16.9785 40.8031 17.4468 41.2694 18.0247 41.2694H26.0502C26.6281 41.2694 27.0964 40.8031 27.0964 40.2276V34.6713C27.0964 32.0768 28.1874 29.5814 30.0904 27.8252C32.5564 25.5531 33.9114 22.4773 33.8964 19.1634C33.8865 15.9487 32.6161 12.9523 30.3196 10.7099C28.0878 8.53701 25.1585 7.35134 22.0449 7.35134Z" fill="#61A60E"/>
<path d="M14.9955 19.1585H13.501C13.501 14.4704 17.3319 10.6554 22.0396 10.6554V12.1437C18.1539 12.1437 14.9955 15.2889 14.9955 19.1585Z" fill="#61A60E"/>
<path d="M23.4895 45.2928H20.5901C19.7283 45.2928 19.0259 44.5933 19.0259 43.7351V41.2645H25.0538V43.7351C25.0538 44.5933 24.3513 45.2928 23.4895 45.2928ZM20.5204 42.7528V43.7351C20.5204 43.7797 20.5553 43.8045 20.5901 43.8045H23.4895C23.5343 43.8045 23.5592 43.7698 23.5592 43.7351V42.7528H20.5204Z" fill="#61A60E"/>
<path d="M28.5913 39.1511H15.4844V33.9222H28.5913V39.1511ZM16.9789 37.6628H27.0968V35.4105H16.9789V37.6628Z" fill="#61A60E"/>
<path d="M5.15198 18.4143H0.768066V19.9026H5.15198V18.4143Z" fill="#61A60E"/>
<path d="M43.3116 18.4143H38.9277V19.9026H43.3116V18.4143Z" fill="#61A60E"/>
<path d="M33.3231 1.18643L32.0288 0.442139L29.8364 4.22278L31.1307 4.96707L33.3231 1.18643Z" fill="#61A60E"/>
<path d="M14.2442 4.22144L12.0518 0.440796L10.7575 1.18508L12.9499 4.96572L14.2442 4.22144Z" fill="#61A60E"/>
</svg>
