<svg width="102" height="97" viewBox="0 0 102 97" fill="none" xmlns="http://www.w3.org/2000/svg">
<path d="M9.27599 2.97064C8.47586 4.31723 8.11714 4.55079 8.7273 5.85045C9.19665 6.8495 6.73255 5.98455 6.442 6.50307C6.08663 7.15905 8.14284 8.02623 8.19089 8.41066C8.23895 8.79508 7.94392 9.46446 7.54162 9.71479C7.13932 9.96511 5.91342 10.2523 5.10322 10.1696C4.29303 10.0869 3.05372 8.1838 2.73746 9.03199C2.83804 9.23426 2.94756 9.43206 3.06601 9.62539C2.76205 10.2333 0.218606 10.3093 0.588501 10.7831C0.958395 11.2569 5.10881 12.0224 5.20715 12.2683C5.30549 12.5141 4.90431 12.5007 4.94901 12.7566C5.491 14.453 8.77311 12.256 9.07931 15.2498C9.11172 15.5627 8.18866 19.512 7.95622 19.2795C8.46803 19.7902 9.08937 18.0223 9.81686 18.4682C10.6282 18.97 5.04847 21.7168 5.2038 21.5559C4.8082 21.9392 5.39266 24.0591 5.28314 24.0211C5.64745 24.1865 3.34204 26.0147 3.21687 26.1555C2.23682 27.2652 4.04383 27.4183 3.4672 28.6979C2.77769 30.2221 4.6484 33.2126 5.28873 34.5446C6.15703 36.355 8.5619 40.825 10.5499 40.825C12.234 40.825 16.0011 41.6084 17.6796 42.2722C19.5671 43.0176 20.4041 44.3932 21.6758 45.8415C22.4503 46.7221 23.827 49.8377 24.7825 50.2892C25.9246 50.8301 25.9749 50.1752 26.4185 48.9594C26.9136 47.6016 32.0943 43.4121 32.6967 42.6264C32.2519 42.5192 31.4887 41.8107 31.4887 41.8107C30.9042 41.1592 31.2193 39.9377 30.6282 39.5667C30.3175 39.3846 26.1023 37.8547 26.1425 37.7854C26.014 37.9921 24.7132 36.8244 23.7835 36.5495C24.6786 36.8143 22.5765 35.0341 22.2748 34.8732C20.9461 34.2105 24.7378 31.7464 25.6217 32.5644C26.6208 33.4864 27.6612 33.7378 28.7999 34.5435C30.3063 35.6107 32.2329 38.4861 34.0779 38.4839C37.2617 38.4794 36.8348 40.9725 38.6675 43.2087C39.4308 44.1395 39.8398 44.7117 38.8932 45.8694C37.8584 47.1356 38.7636 47.7804 38.2037 48.6375C38.3669 48.395 41.9507 51.3687 42.1977 51.6436C42.5352 52.0347 46.195 52.2225 46.8722 52.3935C48.5351 52.8148 50.132 53.321 51.7624 53.7523C53.4007 54.1859 52.5715 55.4051 53.527 55.8432C54.8076 56.431 56.2515 56.564 57.5534 57.1898C59.4799 58.1151 66.1291 63.2601 65.3513 63.2601C68.9988 63.2601 68.7105 69.9528 70.1409 71.79C70.474 72.2146 64.0014 79.0035 66.2934 79.9634C67.7305 80.5658 68.667 82.0319 69.7018 83.1372C71.321 84.8682 74.1964 84.1921 76.3677 85.1408C79.0452 86.3187 80.5661 85.751 79.5112 82.5393C79.0665 81.1804 78.5681 80.4049 77.0382 79.9701C76.1542 79.7187 73.6577 75.9952 73.8555 75.9494C74.5171 75.7963 77.8908 75.0766 77.9624 76.3327C78.054 77.9307 79.2296 77.2915 80.1393 78.1419C80.0946 78.0994 85.9928 83.2981 83.855 85.3141C82.2726 86.8048 85.7223 88.3146 86.6331 88.9236C88.3798 90.0903 90.4248 92.7064 90.5175 93.949C90.6103 95.1917 90.1242 97.0277 90.8885 96.3405C91.5166 95.5135 91.1936 91.8224 90.3477 91.2335C89.6291 90.6937 90.2415 89.5919 89.4838 89.0678C88.9664 88.7102 86.1581 88.442 86.5046 87.3546C86.8275 86.3366 90.2493 84.4279 91.2182 84.2278C92.9906 83.8635 93.5382 79.5053 92.8218 78.0927C92.2877 77.0367 90.6304 75.9717 90.4974 74.7994C90.4661 74.5223 92.2195 71.8615 92.4654 71.7632C94.2768 71.0402 97.417 70.4188 95.6614 67.9413C95.0826 67.1233 93.261 66.5031 92.4352 65.9298C92.034 65.3923 91.4518 64.6391 90.9623 64.6435C90.4728 64.648 90.3186 65.0056 89.9364 64.9799C89.1754 63.4568 89.8515 60.0238 89.8325 58.3922C89.8135 56.6467 89.3822 53.797 89.7755 53.1567C90.1689 52.5164 91.9614 53.1176 92.4799 52.3957C92.5045 52.361 91.1948 50.5574 91.482 49.9361C92.1815 48.4297 94.0611 49.1538 95.1239 49.9953C95.9944 50.6825 96.5722 52.0973 97.5735 52.1621C97.9545 52.1867 98.6977 52.3622 99.1 52.408C99.9135 52.5298 99.4431 50.7429 99.794 50.5775C100.156 50.4076 100.629 51.2871 100.898 51.1307C101.71 49.7863 97.512 48.2475 96.9309 48.1726C95.8045 48.0274 94.6925 47.758 93.8287 46.9769C92.8721 46.1108 93.9595 45.2638 92.6117 45.1721C91.1255 45.0716 89.1732 41.4028 88.3105 40.2931C87.6277 39.4147 87.4176 38.8996 87.0656 37.8916C86.5605 36.4478 85.3189 37.8826 84.4852 37.0009C81.1327 33.454 77.5388 29.0108 75.0423 24.8279C73.4007 22.0778 71.0238 17.9475 70.522 14.7749C70.341 13.6261 70.1063 12.5577 69.6425 11.4871C69.5978 11.3821 67.4891 8.39836 67.2958 9.32925C67.1092 10.2255 69.362 13.6339 67.0611 13.7099C64.7713 13.787 63.1901 15.7024 61.012 15.9348C58.5222 16.2008 58.6988 13.3992 56.1766 14.1915C55.1027 14.529 52.2161 13.7669 51.3534 12.9891C53.0465 11.7475 50.2438 10.5518 49.3844 10.0567C48.0367 9.28119 48.439 7.22833 46.6599 8.03964C44.6931 8.93812 44.9512 7.74909 43.0772 7.04953C42.01 6.6517 38.9044 4.61449 37.826 5.21124C35.3753 6.56901 32.3938 9.56727 29.7252 8.47547C26.6767 7.22833 23.5901 6.0706 20.5695 4.75641C18.4842 3.849 14.2724 3.75736 12.8744 1.85649C11.15 -0.483572 10.1219 1.54358 9.27599 2.97064C8.06685 5.00673 9.27599 2.97064 9.27599 2.97064C8.91504 3.57744 9.27599 2.97064 9.27599 2.97064Z" fill="white"/>
</svg>
