<svg width="124" height="98" viewBox="0 0 124 98" fill="none" xmlns="http://www.w3.org/2000/svg">
<path d="M119.276 81.8627L66.4406 9.69249L61.8703 0.581543L57.2999 9.69249L4.46499 81.8627V75.4058H0.0491943V97.4129H4.46499V89.3275L45.3994 33.4118L13.2966 97.4129H44.2071V79.8072C44.2071 70.0845 52.1158 62.2015 61.8703 62.2015C71.6248 62.2015 79.5335 70.0845 79.5335 79.8072V97.4129H110.444L78.3368 33.4118L119.276 89.3275V97.4129H123.691V75.4058H119.276V81.8627Z" fill="white"/>
<path d="M61.8703 66.603C54.5666 66.603 48.6229 72.5273 48.6229 79.8073V97.413H75.1177V79.8073C75.1177 72.5273 69.174 66.603 61.8703 66.603Z" fill="white"/>
</svg>
