<svg width="45" height="46" viewBox="0 0 45 46" fill="none" xmlns="http://www.w3.org/2000/svg">
<path d="M44.132 33.4532C44.1815 33.3065 44.2078 33.153 44.21 32.9982V12.5802C44.21 12.5672 44.21 12.5552 44.21 12.5422C44.21 12.5292 44.21 12.5162 44.21 12.5032V8.28324C44.2084 6.82503 43.6285 5.42701 42.5974 4.39591C41.5663 3.3648 40.1682 2.78483 38.71 2.78324H35.351V1.59424C35.351 1.19641 35.193 0.814882 34.9117 0.533578C34.6304 0.252273 34.2489 0.0942383 33.851 0.0942383C33.4532 0.0942383 33.0717 0.252273 32.7904 0.533578C32.5091 0.814882 32.351 1.19641 32.351 1.59424V2.78324H27.783V1.59424C27.783 1.19641 27.625 0.814882 27.3437 0.533578C27.0624 0.252273 26.6809 0.0942383 26.283 0.0942383C25.8852 0.0942383 25.5037 0.252273 25.2224 0.533578C24.9411 0.814882 24.783 1.19641 24.783 1.59424V2.78324H20.217V1.59424C20.217 1.19641 20.059 0.814882 19.7777 0.533578C19.4964 0.252273 19.1149 0.0942383 18.717 0.0942383C18.3192 0.0942383 17.9377 0.252273 17.6564 0.533578C17.3751 0.814882 17.217 1.19641 17.217 1.59424V2.78324H12.65V1.59424C12.65 1.19641 12.492 0.814882 12.2107 0.533578C11.9294 0.252273 11.5479 0.0942383 11.15 0.0942383C10.7522 0.0942383 10.3707 0.252273 10.0894 0.533578C9.80807 0.814882 9.65004 1.19641 9.65004 1.59424V2.78324H6.29004C4.83184 2.78483 3.43381 3.3648 2.40271 4.39591C1.3716 5.42701 0.791627 6.82503 0.790039 8.28324V12.5032C0.790039 12.5162 0.790039 12.5282 0.790039 12.5422C0.790039 12.5562 0.790039 12.5672 0.790039 12.5802V39.7132C0.791627 41.1714 1.3716 42.5695 2.40271 43.6006C3.43381 44.6317 4.83184 45.2117 6.29004 45.2132H32.99C33.0908 45.2129 33.1913 45.2025 33.29 45.1822C33.3876 45.1621 33.4827 45.1319 33.574 45.0922C33.601 45.0812 33.626 45.0632 33.652 45.0502C33.7159 45.0212 33.7778 44.9878 33.837 44.9502C33.866 44.9292 33.892 44.9042 33.92 44.8812C33.9727 44.8404 34.0225 44.796 34.069 44.7482C34.077 44.7402 34.087 44.7342 34.095 44.7252L43.814 34.0052C43.822 33.9962 43.824 33.9852 43.832 33.9762C43.9496 33.841 44.042 33.6859 44.105 33.5182C44.12 33.4912 44.125 33.4702 44.132 33.4532ZM6.29004 5.78324H9.65004V6.97524C9.65004 7.37306 9.80807 7.75459 10.0894 8.0359C10.3707 8.3172 10.7522 8.47524 11.15 8.47524C11.5479 8.47524 11.9294 8.3172 12.2107 8.0359C12.492 7.75459 12.65 7.37306 12.65 6.97524V5.78324H17.217V6.97524C17.217 7.37306 17.3751 7.75459 17.6564 8.0359C17.9377 8.3172 18.3192 8.47524 18.717 8.47524C19.1149 8.47524 19.4964 8.3172 19.7777 8.0359C20.059 7.75459 20.217 7.37306 20.217 6.97524V5.78324H24.783V6.97524C24.783 7.37306 24.9411 7.75459 25.2224 8.0359C25.5037 8.3172 25.8852 8.47524 26.283 8.47524C26.6809 8.47524 27.0624 8.3172 27.3437 8.0359C27.625 7.75459 27.783 7.37306 27.783 6.97524V5.78324H32.351V6.97524C32.351 7.37306 32.5091 7.75459 32.7904 8.0359C33.0717 8.3172 33.4532 8.47524 33.851 8.47524C34.2489 8.47524 34.6304 8.3172 34.9117 8.0359C35.193 7.75459 35.351 7.37306 35.351 6.97524V5.78324H38.71C39.0383 5.78324 39.3634 5.8479 39.6667 5.97354C39.9701 6.09918 40.2457 6.28332 40.4778 6.51547C40.71 6.74762 40.8941 7.02322 41.0197 7.32653C41.1454 7.62984 41.21 7.95493 41.21 8.28324V11.0422H3.79004V8.28324C3.79004 7.6202 4.05343 6.98431 4.52227 6.51547C4.99111 6.04663 5.627 5.78324 6.29004 5.78324V5.78324ZM3.79004 39.7132V14.0422H41.21V31.4932H36.99C35.5318 31.4948 34.1338 32.0748 33.1027 33.1059C32.0716 34.137 31.4916 35.535 31.49 36.9932V42.2132H6.29004C5.627 42.2132 4.99111 41.9498 4.52227 41.481C4.05343 41.0122 3.79004 40.3763 3.79004 39.7132ZM39.325 34.4932L34.49 39.8262V36.9932C34.49 36.3302 34.7534 35.6943 35.2223 35.2255C35.6911 34.7566 36.327 34.4932 36.99 34.4932H39.325ZM29.848 23.2532L21.822 32.9632C21.6854 33.1283 21.5151 33.2621 21.3224 33.3558C21.1297 33.4494 20.9192 33.5007 20.705 33.5062H20.666C20.4583 33.5063 20.2528 33.4632 20.0626 33.3798C19.8724 33.2963 19.7016 33.1742 19.561 33.0212L15.205 28.2832C15.0717 28.1382 14.9683 27.9683 14.9007 27.7833C14.8331 27.5983 14.8025 27.4018 14.8108 27.205C14.8191 27.0081 14.8661 26.8149 14.9491 26.6362C15.0321 26.4576 15.1495 26.297 15.2945 26.1637C15.5875 25.8945 15.9753 25.7527 16.3728 25.7695C16.5696 25.7778 16.7629 25.8248 16.9415 25.9078C17.1202 25.9908 17.2807 26.1082 17.414 26.2532L20.605 29.7252L27.535 21.3432C27.7903 21.0431 28.1535 20.8555 28.546 20.821C28.9385 20.7864 29.3288 20.9077 29.6327 21.1586C29.9365 21.4094 30.1294 21.7698 30.1697 22.1617C30.21 22.5537 30.0944 22.9458 29.848 23.2532V23.2532Z" fill="white"/>
</svg>
