<svg width="42" height="43" viewBox="0 0 42 43" fill="none" xmlns="http://www.w3.org/2000/svg">
<path d="M40.8915 5.95257H36.7102V1.77352C36.7102 1.41115 36.4921 1.08462 36.1575 0.945769C35.8224 0.806915 35.4381 0.883061 35.181 1.14016L31.3137 5.00702C28.121 3.00036 24.4503 1.94328 20.6502 1.94328C9.5831 1.94283 0.579102 10.9468 0.579102 22.0144C0.579102 33.0819 9.5831 42.0859 20.6506 42.0859C31.7182 42.0859 40.7222 33.0819 40.7222 22.0144C40.7222 18.2138 39.6647 14.5427 37.6571 11.3491L41.5253 7.48175C41.7815 7.22555 41.8581 6.83989 41.7197 6.5053C41.5804 6.1707 41.2539 5.95257 40.8915 5.95257ZM38.9301 22.0144C38.9301 32.0938 30.7296 40.2943 20.6506 40.2943C10.5717 40.2943 2.37076 32.0938 2.37076 22.0144C2.37076 11.9349 10.5712 3.73449 20.6506 3.73449C23.9733 3.73449 27.1857 4.62405 30.009 6.31135L27.4155 8.90478C27.2476 9.07275 27.153 9.30074 27.153 9.53813V11.4655C25.2082 10.2673 22.9588 9.61204 20.6515 9.61204H20.6506C13.8119 9.61204 8.24876 15.1756 8.24876 22.0139C8.24876 28.8523 13.8123 34.4158 20.6506 34.4158C27.4881 34.4158 33.0507 28.8523 33.0507 22.0139C33.0507 19.7058 32.395 17.4546 31.1964 15.5089H33.1247C33.362 15.5089 33.59 15.4148 33.758 15.2468L36.3523 12.6534C38.0401 15.4784 38.9301 18.6913 38.9301 22.0144ZM27.1526 14.2444L23.3001 18.0974C22.5435 17.584 21.6311 17.283 20.6502 17.283C18.0411 17.283 15.9189 19.4057 15.9189 22.0144C15.9189 24.623 18.0411 26.7457 20.6502 26.7457C23.2584 26.7457 25.3811 24.623 25.3811 22.0144C25.3811 21.033 25.0805 20.1206 24.5668 19.3641L28.4211 15.5097H29.0191C30.4609 17.3646 31.2586 19.6552 31.2586 22.0148C31.2586 27.8655 26.5 32.625 20.6502 32.625C14.7995 32.625 10.04 27.8655 10.04 22.0148C10.04 16.1642 14.8 11.4037 20.6506 11.4037C20.6511 11.4037 20.6511 11.4037 20.6515 11.4037C23.0103 11.4037 25.2987 12.2014 27.153 13.6424V14.2444H27.1526ZM23.5894 22.0144C23.5894 23.6354 22.2712 24.954 20.6502 24.954C19.0292 24.954 17.7105 23.6354 17.7105 22.0144C17.7105 20.3934 19.0292 19.0747 20.6502 19.0747C21.1344 19.0747 21.5908 19.1947 21.9939 19.403L20.016 21.3815C19.6661 21.7313 19.6661 22.2984 20.016 22.6482C20.1911 22.8233 20.42 22.9107 20.6493 22.9107C20.8786 22.9107 21.1075 22.8233 21.2827 22.6482L23.2607 20.6702C23.4694 21.0733 23.5894 21.5297 23.5894 22.0144ZM35.8789 10.593C35.8708 10.601 35.8632 10.6082 35.8556 10.6163L32.7533 13.7176H28.9443V9.9099L32.0407 6.81346C32.0528 6.80227 32.0644 6.79017 32.0761 6.77808L34.9186 3.93605V6.84795C34.9186 7.34245 35.3199 7.74378 35.8144 7.74378H38.7285L35.8789 10.593Z" fill="#61A60E"/>
</svg>
