<svg width="29" height="46" viewBox="0 0 29 46" fill="none" xmlns="http://www.w3.org/2000/svg">
<path d="M24.1966 11.8551L28.0802 5.05869C28.2259 4.81596 28.2259 4.57324 28.0802 4.33051C27.9346 4.08778 27.6919 3.99069 27.4491 3.99069H8.51642V0.835237C8.51642 0.446874 8.1766 0.107056 7.78824 0.107056H4.9726C4.58424 0.107056 4.24442 0.446874 4.24442 0.835237V39.8172H2.78806C1.57442 39.8172 0.603516 40.7881 0.603516 42.0018V44.7203C0.603516 45.1087 0.943334 45.4485 1.3317 45.4485H11.4291C11.8175 45.4485 12.1573 45.1087 12.1573 44.7203V42.0018C12.1573 40.7881 11.1864 39.8172 9.97279 39.8172H8.51642V19.7194H27.4491C27.6919 19.7194 27.9346 19.5738 28.0802 19.3796C28.2259 19.1369 28.2259 18.8941 28.0802 18.6514L24.1966 11.8551ZM10.701 42.0018V43.9921H2.05988V42.0018C2.05988 41.6134 2.3997 41.2736 2.78806 41.2736H9.97279C10.3611 41.2736 10.701 41.6134 10.701 42.0018ZM5.70079 39.8172V1.56342H7.06006V39.8172H5.70079ZM8.51642 18.263V5.44705H26.187L22.7402 11.5152C22.5946 11.758 22.5946 12.0007 22.7402 12.2434L26.187 18.3116H8.51642V18.263Z" fill="#61A60E"/>
<path d="M20.7983 9.47644H10.895V10.9328H20.7983V9.47644Z" fill="#61A60E"/>
<path d="M20.7983 12.729H10.895V14.1854H20.7983V12.729Z" fill="#61A60E"/>
</svg>
