<svg width="306" height="302" viewBox="0 0 306 302" fill="none" xmlns="http://www.w3.org/2000/svg" style="opacity: 0.05">
<mask id="mask0_701:18" style="mask-type:alpha" maskUnits="userSpaceOnUse" x="0" y="0" width="306" height="302">
<rect width="306" height="302" transform="matrix(-1 0 0 1 306 0)" fill="#F2F2F2"/>
</mask>
<g mask="url(#mask0_701:18)">
<path fill-rule="evenodd" clip-rule="evenodd" d="M287.856 147L194.893 54.0371C172.211 78.6118 158.039 111.159 157.055 147H287.856ZM143.945 147C142.932 110.104 127.943 76.6983 104.081 51.8876L8.96895 147H143.945ZM12.5564 158H143.832C142.118 193.558 127.417 225.709 104.369 249.813L12.5564 158ZM157.168 158H284.269L194.612 247.657C172.727 223.808 158.832 192.508 157.168 158ZM194.167 37.7544C220.964 12.7007 256.661 -2.95288 296 -3.94939V-4H300H307V-3.84475C389.355 -0.184421 455 67.7417 455 151C455 234.258 389.355 302.184 307 305.845V306H300H296V305.949C256.512 304.949 220.695 289.181 193.864 263.961L148.413 309.413L104.964 265.964C77.4676 290.846 41.0036 306 1 306C-84.6041 306 -154 236.604 -154 151C-154 65.3959 -84.6041 -4 1 -4C40.854 -4 77.1949 11.0414 104.656 35.757L148.413 -8L194.167 37.7544ZM202.658 46.245C227.276 23.358 259.974 9.04431 296 8.05486V139.587L202.658 46.245ZM307 150.587V8.16833C382.725 11.8184 443 74.3702 443 151C443 227.63 382.725 290.182 307 293.832V150.825L307.119 150.706L307 150.587ZM296 161.825V293.945C259.825 292.952 227.007 278.524 202.354 255.472L296 161.825ZM112.568 43.4008L148.413 7.55635L186.402 45.5455C169.679 63.5513 157.185 85.539 150.5 109.929C143.547 84.562 130.311 61.7935 112.568 43.4008ZM96.1575 44.2551C70.8792 21.705 37.5401 8 1 8C-77.9767 8 -142 72.0233 -142 151C-142 229.977 -77.9767 294 1 294C37.6897 294 71.1521 280.183 96.4675 257.467L-10.2937 150.706L96.1575 44.2551ZM112.856 258.3L148.413 293.856L186.119 256.15C169.538 238.201 157.147 216.323 150.5 192.071C143.585 217.301 130.454 239.96 112.856 258.3Z" fill="#F2F2F2"/>
</g>
</svg>
