<svg width="57" height="59" viewBox="0 0 57 59" fill="none" xmlns="http://www.w3.org/2000/svg">
<path d="M33.7647 58.2452H24.7584C22.3336 58.2452 20.2552 56.1668 20.2552 53.742V51.8369C18.1768 51.1441 16.2717 50.2781 14.5397 49.0657L12.4613 50.2781C10.3829 51.4905 7.43854 50.7977 6.22615 48.5461L1.72299 40.7522C0.510601 38.6738 1.2034 35.9026 3.45498 34.517L4.49417 33.8242C4.32097 32.6118 4.14777 31.053 4.14777 29.6674C4.14777 28.8015 4.14777 28.1087 4.32097 27.0695L2.58898 26.0303C1.54979 25.5107 0.856998 24.4715 0.510601 23.2591C0.164204 22.0467 0.337402 20.8343 1.0302 19.7951L5.53336 12.0012C6.74575 9.92282 9.51692 9.05683 11.7685 10.2692L13.1541 11.1352C14.8861 9.74963 16.6181 8.71043 18.6964 7.84444V5.41966C18.6964 2.99489 20.7748 0.916504 23.1996 0.916504H32.2059C34.6307 0.916504 36.7091 2.99489 36.7091 5.41966V7.84444C38.4411 8.53724 39.9999 9.40323 41.5586 10.6156L44.503 8.88363C46.5814 7.67124 49.3526 8.36404 50.7382 10.6156L55.2413 18.4095C55.7609 19.4487 55.9341 20.6611 55.7609 21.8735C55.5877 23.0859 54.7217 23.9519 53.6825 24.6447L50.7382 26.2035C50.9114 27.4159 50.9114 28.4551 50.9114 29.6674C50.9114 30.187 50.9114 30.7066 50.9114 31.2262L54.2021 33.1314C55.2413 33.651 55.9341 34.6902 56.2805 35.9026C56.6269 37.115 56.4537 38.3274 55.7609 39.3666L51.2578 47.1605C50.0454 49.2389 47.2742 50.1049 45.0226 48.8925L42.5978 47.5069C41.2122 48.7193 39.6535 49.7585 38.0947 50.6245V53.9152C38.2679 56.1668 36.1895 58.2452 33.7647 58.2452ZM14.5397 45.4285C15.0593 45.4285 15.5789 45.6017 15.9253 45.9481C17.8304 47.3337 19.7356 48.1997 21.9872 48.8925C23.0264 49.2389 23.7192 50.1049 23.7192 51.1441V53.742C23.7192 54.2616 24.2388 54.7812 24.7584 54.7812H33.7647C34.2843 54.7812 34.8039 54.2616 34.8039 53.742V49.7585C34.8039 48.8925 35.3235 48.0265 36.1895 47.5069C37.9215 46.6409 39.6535 45.6017 41.039 44.2161C41.7318 43.5233 42.9442 43.3501 43.8102 43.8697L46.9278 45.6017C47.4474 45.9481 48.1402 45.7749 48.3134 45.2553L52.8165 37.4614C52.9897 37.2882 52.9897 36.9418 52.9897 36.5954C52.9897 36.249 52.8165 36.0758 52.4701 35.9026L48.6598 33.651C47.7938 33.1314 47.4474 32.2654 47.4474 31.3994C47.4474 30.7066 47.6206 30.187 47.6206 29.4943C47.6206 28.2819 47.4474 27.0695 47.2742 25.8571C47.101 24.8179 47.6206 23.7787 48.4866 23.4323L51.7773 21.5271C51.9505 21.3539 52.1237 21.1807 52.2969 20.8343C52.4701 20.4879 52.2969 20.3147 52.1237 19.9683L47.4474 12.5208C47.101 12.0012 46.5814 11.828 46.0618 12.1744L42.4246 14.0796C41.5586 14.5992 40.5194 14.426 39.8267 13.9064C38.2679 12.694 36.5359 11.6548 34.6307 10.962C33.7647 10.6156 33.0719 9.74962 33.0719 8.71043V5.41966C33.0719 4.90007 32.5523 4.38047 32.0327 4.38047H23.0264C22.5068 4.38047 21.9872 4.90007 21.9872 5.41966V8.88363C21.9872 9.92282 21.2944 10.7888 20.4284 11.1352C18.35 12.0012 16.4449 13.0404 14.7129 14.5992C14.0201 15.292 12.8077 15.292 11.9417 14.7724L9.86332 13.56C9.34372 13.2136 8.65093 13.3868 8.47773 13.9064L3.97457 21.7003C3.80137 21.8735 3.80137 22.2199 3.80137 22.5663C3.80137 22.9127 3.97457 23.0859 4.32097 23.2591L6.57255 24.6447C7.43854 25.1643 7.95813 26.0303 7.78494 27.0695C7.61174 27.9355 7.61174 28.8015 7.61174 29.6674C7.61174 31.053 7.78494 32.6118 8.13133 33.9974C8.30453 35.0366 7.95814 36.0758 6.91894 36.5954L5.18696 37.6346C4.66736 37.981 4.49416 38.5006 4.84056 39.0202L9.34372 46.8141C9.69012 47.3337 10.2097 47.5069 10.7293 47.1605L13.3273 45.6017C13.6737 45.6017 14.1933 45.4285 14.5397 45.4285ZM28.3956 41.9645C21.6408 41.9645 16.0985 36.4222 16.0985 29.6674C16.0985 22.9127 21.6408 17.3704 28.3956 17.3704C35.1503 17.3704 40.6926 22.9127 40.6926 29.6674C40.6926 36.4222 35.1503 41.9645 28.3956 41.9645ZM28.3956 20.8343C23.546 20.8343 19.5624 24.8179 19.5624 29.6674C19.5624 34.517 23.546 38.5006 28.3956 38.5006C33.2451 38.5006 37.2287 34.517 37.2287 29.6674C37.2287 24.8179 33.2451 20.8343 28.3956 20.8343Z" fill="white"/>
</svg>
