<svg width="126" height="96" viewBox="0 0 126 96" fill="none" xmlns="http://www.w3.org/2000/svg">
<g filter="url(#filter0_d)">
<path d="M63 70.6109C62.7069 70.6126 62.4164 70.5564 62.1451 70.4456C61.8738 70.3348 61.6271 70.1716 61.419 69.9652C58.8806 67.4045 40.154 67.0482 24.3 68.1616C23.9947 68.183 23.6883 68.1413 23.3999 68.039C23.1115 67.9367 22.8472 67.7761 22.6237 67.5672C22.4001 67.3582 22.222 67.1054 22.1005 66.8246C21.979 66.5438 21.9166 66.2409 21.9174 65.9349V12.4941C21.9126 12.1473 21.9888 11.8042 22.1401 11.4921C27.5509 0.670368 57.6336 8.64194 63.6012 10.3565C64.0828 10.4912 64.5051 10.7841 64.7999 11.188C65.0948 11.592 65.2451 12.0834 65.2267 12.5832V68.3842C65.2267 68.9748 64.9921 69.5412 64.5745 69.9587C64.1569 70.3763 63.5905 70.6109 63 70.6109ZM41.5791 63.0624C48.0279 62.8418 54.4784 63.4479 60.7733 64.866V14.2087C47.7916 10.7128 29.7331 8.28567 26.3708 13.1844V63.5746C30.1562 63.3296 35.7674 63.0624 41.5791 63.0624Z" fill="white"/>
<path d="M54.0932 25.9436H53.6478C47.5536 24.564 41.3256 23.8621 35.0772 23.8506C34.4866 23.8506 33.9202 23.6159 33.5027 23.1984C33.0851 22.7808 32.8505 22.2144 32.8505 21.6239C32.8505 21.0333 33.0851 20.4669 33.5027 20.0493C33.9202 19.6318 34.4866 19.3972 35.0772 19.3972C41.6853 19.4201 48.2711 20.1668 54.7166 21.6239C55.3072 21.6859 55.8489 21.9799 56.2227 22.4414C56.5964 22.9028 56.7715 23.4938 56.7095 24.0844C56.6475 24.6749 56.3535 25.2166 55.892 25.5904C55.4306 25.9641 54.8396 26.1393 54.249 26.0772L54.0932 25.9436Z" fill="white"/>
<path d="M54.0934 41.5299H53.648C47.5538 40.1503 41.3258 39.4484 35.0774 39.4369C34.7849 39.4471 34.4934 39.3996 34.2193 39.2972C33.9452 39.1947 33.694 39.0393 33.48 38.8398C33.0478 38.4368 32.7934 37.8786 32.7727 37.2881C32.7521 36.6975 32.9668 36.123 33.3698 35.6907C33.7728 35.2585 34.3309 35.0041 34.9215 34.9835C41.5296 35.0064 48.1154 35.7531 54.561 37.2102C54.8534 37.2409 55.1369 37.3289 55.3953 37.4691C55.6537 37.6094 55.8819 37.7992 56.067 38.0277C56.2521 38.2561 56.3903 38.5188 56.4738 38.8007C56.5574 39.0826 56.5846 39.3782 56.5539 39.6707C56.5232 39.9631 56.4352 40.2466 56.2949 40.505C56.1546 40.7634 55.9648 40.9916 55.7363 41.1767C55.5079 41.3617 55.2452 41.5 54.9633 41.5835C54.6814 41.6671 54.3858 41.6943 54.0934 41.6636V41.5299Z" fill="white"/>
<path d="M54.0932 57.1169H53.6478C47.5536 55.7373 41.3256 55.0353 35.0772 55.0238C34.4866 55.0238 33.9202 54.7892 33.5027 54.3716C33.0851 53.9541 32.8505 53.3877 32.8505 52.7971C32.8505 52.2066 33.0851 51.6402 33.5027 51.2226C33.9202 50.805 34.4866 50.5704 35.0772 50.5704C41.6853 50.5934 48.2711 51.34 54.7166 52.7971C55.3072 52.8591 55.8489 53.1532 56.2227 53.6146C56.5964 54.0761 56.7715 54.6671 56.7095 55.2576C56.6475 55.8482 56.3535 56.3899 55.892 56.7637C55.4306 57.1374 54.8396 57.3125 54.249 57.2505L54.0932 57.1169Z" fill="white"/>
<path d="M72.0182 25.9432C71.4277 26.0052 70.8367 25.8301 70.3752 25.4564C69.9138 25.0826 69.6197 24.5409 69.5577 23.9503C69.4957 23.3598 69.6708 22.7688 70.0446 22.3073C70.4183 21.8459 70.9601 21.5518 71.5506 21.4898C77.9942 20.0213 84.5813 19.2744 91.1901 19.2631C91.7806 19.2631 92.347 19.4977 92.7646 19.9153C93.1822 20.3329 93.4168 20.8993 93.4168 21.4898C93.4168 22.0804 93.1822 22.6467 92.7646 23.0643C92.347 23.4819 91.7806 23.7165 91.1901 23.7165C84.9417 23.728 78.7136 24.43 72.6194 25.8096L72.0182 25.9432Z" fill="white"/>
<path d="M72.0182 41.5302C71.4277 41.5922 70.8367 41.4171 70.3752 41.0433C69.9138 40.6696 69.6197 40.1279 69.5577 39.5373C69.4957 38.9467 69.6708 38.3557 70.0446 37.8943C70.4183 37.4329 70.9601 37.1388 71.5506 37.0768C77.9942 35.6082 84.5813 34.8614 91.1901 34.8501C91.7806 34.8501 92.347 35.0847 92.7646 35.5023C93.1822 35.9199 93.4168 36.4862 93.4168 37.0768C93.4168 37.6674 93.1822 38.2337 92.7646 38.6513C92.347 39.0689 91.7806 39.3035 91.1901 39.3035C84.9417 39.315 78.7136 40.017 72.6194 41.3966L72.0182 41.5302Z" fill="white"/>
<path d="M72.0182 57.1172C71.7258 57.1479 71.4302 57.1207 71.1483 57.0372C70.8664 56.9537 70.6037 56.8154 70.3752 56.6304C70.1467 56.4453 69.957 56.2171 69.8167 55.9587C69.6764 55.7002 69.5884 55.4167 69.5577 55.1243C69.527 54.8319 69.5542 54.5363 69.6377 54.2544C69.7213 53.9725 69.8595 53.7098 70.0446 53.4813C70.2296 53.2529 70.4579 53.0631 70.7163 52.9228C70.9747 52.7825 71.2582 52.6945 71.5506 52.6638C77.9942 51.1953 84.5813 50.4484 91.1901 50.4371C91.7806 50.4371 92.347 50.6717 92.7646 51.0893C93.1822 51.5069 93.4168 52.0733 93.4168 52.6638C93.4168 53.2544 93.1822 53.8208 92.7646 54.2383C92.347 54.6559 91.7806 54.8905 91.1901 54.8905C84.9423 54.9131 78.7155 55.6149 72.6194 56.9836L72.0182 57.1172Z" fill="white"/>
<path d="M11.9864 77.8921C11.4345 77.8906 10.9029 77.6843 10.4945 77.3131C10.2638 77.1049 10.0793 76.8508 9.95275 76.567C9.8262 76.2832 9.76044 75.9761 9.7597 75.6654V19.8643C9.76581 19.4401 9.86232 19.0221 10.0428 18.6381C10.2233 18.2541 10.4835 17.913 10.8063 17.6376C12.9216 15.7895 19.379 16.1903 24.4336 16.8583C25.0242 16.938 25.5589 17.2491 25.9201 17.723C26.2813 18.197 26.4395 18.795 26.3597 19.3856C26.28 19.9761 25.969 20.5108 25.495 20.8721C25.021 21.2333 24.423 21.3914 23.8324 21.3117C20.6505 20.8223 17.4226 20.7027 14.2131 20.9554V73.3051C27.3061 72.1249 51.3767 70.3213 60.7733 72.1917V68.3841C60.7733 67.7935 61.0079 67.2271 61.4255 66.8096C61.8431 66.392 62.4095 66.1574 63 66.1574C63.5906 66.1574 64.157 66.392 64.5746 66.8096C64.9921 67.2271 65.2267 67.7935 65.2267 68.3841V75.6654C65.2267 76.2559 64.9921 76.8223 64.5746 77.2399C64.157 77.6575 63.5906 77.8921 63 77.8921C62.5803 77.8909 62.1695 77.7711 61.8149 77.5465C61.4604 77.322 61.1765 77.0018 60.996 76.6229C57.0325 74.886 33.4072 75.8658 12.2091 77.8921H11.9864Z" fill="white"/>
<path d="M62.9999 70.6111C62.4094 70.6111 61.843 70.3765 61.4254 69.9589C61.0078 69.5413 60.7732 68.9749 60.7732 68.3844V12.5166C60.7548 12.0168 60.9051 11.5253 61.2 11.1214C61.4948 10.7175 61.9171 10.4245 62.3987 10.2899C68.3663 8.5753 98.449 0.603717 103.86 11.4255C104.011 11.7376 104.087 12.0807 104.083 12.4275V65.8682C104.083 66.1742 104.021 66.4771 103.899 66.7579C103.778 67.0388 103.6 67.2916 103.376 67.5005C103.153 67.7094 102.888 67.8701 102.6 67.9723C102.312 68.0746 102.005 68.1163 101.7 68.0949C85.8459 66.9816 67.1193 67.3378 64.5809 69.8985C64.3784 70.117 64.1342 70.2926 63.8626 70.415C63.5911 70.5374 63.2977 70.6041 62.9999 70.6111ZM65.2266 14.2088V64.8662C73.6213 62.35 91.1899 63.0403 99.6291 63.5747V13.1846C96.2668 8.28582 78.2083 10.7129 65.2266 14.2088Z" fill="white"/>
<path d="M114.014 77.8921H113.791C92.5929 75.8658 68.9676 74.886 65.0041 76.6229C64.8236 77.0018 64.5397 77.322 64.1852 77.5465C63.8306 77.7711 63.4198 77.8909 63.0001 77.8921C62.4095 77.8921 61.8431 77.6575 61.4256 77.2399C61.008 76.8223 60.7734 76.2559 60.7734 75.6654V68.3841C60.7734 67.7935 61.008 67.2271 61.4256 66.8096C61.8431 66.392 62.4095 66.1574 63.0001 66.1574C63.5906 66.1574 64.157 66.392 64.5746 66.8096C64.9922 67.2271 65.2268 67.7935 65.2268 68.3841V72.1027C74.6234 70.2322 98.6272 72.1027 111.787 73.216V20.8441C108.578 20.5914 105.35 20.7109 102.168 21.2004C101.875 21.2398 101.578 21.2213 101.293 21.1459C101.007 21.0705 100.74 20.9396 100.505 20.7607C100.27 20.5819 100.073 20.3585 99.9249 20.1035C99.7765 19.8485 99.6799 19.5667 99.6404 19.2743C99.6009 18.9819 99.6194 18.6845 99.6948 18.3993C99.7703 18.114 99.9011 17.8464 100.08 17.6117C100.259 17.377 100.482 17.1799 100.737 17.0315C100.992 16.8831 101.274 16.7864 101.566 16.747C106.621 16.079 113.078 15.6781 115.194 17.5263C115.517 17.8017 115.777 18.1428 115.957 18.5268C116.138 18.9107 116.234 19.3288 116.24 19.753V75.6654C116.24 75.9761 116.174 76.2832 116.047 76.567C115.921 76.8508 115.736 77.1049 115.506 77.3131C115.097 77.6843 114.566 77.8906 114.014 77.8921Z" fill="white"/>
<path d="M63 82.7462H11.9864C11.3958 82.7462 10.8295 82.5116 10.4119 82.094C9.9943 81.6764 9.7597 81.1101 9.7597 80.5195V75.6653C9.7597 75.0748 9.9943 74.5084 10.4119 74.0908C10.8295 73.6732 11.3958 73.4386 11.9864 73.4386C12.577 73.4386 13.1433 73.6732 13.5609 74.0908C13.9785 74.5084 14.2131 75.0748 14.2131 75.6653V78.2928H60.7733V73.4832C60.7733 72.8926 61.0079 72.3262 61.4255 71.9087C61.8431 71.4911 62.4095 71.2565 63 71.2565C63.5906 71.2565 64.157 71.4911 64.5746 71.9087C64.9921 72.3262 65.2267 72.8926 65.2267 73.4832V80.5195C65.2267 81.1101 64.9921 81.6764 64.5746 82.094C64.157 82.5116 63.5906 82.7462 63 82.7462Z" fill="white"/>
<path d="M114.014 82.7462H63.0001C62.4095 82.7462 61.8431 82.5116 61.4256 82.094C61.008 81.6764 60.7734 81.1101 60.7734 80.5195V73.4832C60.7734 72.8926 61.008 72.3262 61.4256 71.9087C61.8431 71.4911 62.4095 71.2565 63.0001 71.2565C63.5906 71.2565 64.157 71.4911 64.5746 71.9087C64.9922 72.3262 65.2268 72.8926 65.2268 73.4832V78.2928H111.787V75.6653C111.787 75.0748 112.022 74.5084 112.439 74.0908C112.857 73.6732 113.423 73.4386 114.014 73.4386C114.604 73.4386 115.171 73.6732 115.588 74.0908C116.006 74.5084 116.24 75.0748 116.24 75.6653V80.5195C116.24 81.1101 116.006 81.6764 115.588 82.094C115.171 82.5116 114.604 82.7462 114.014 82.7462Z" fill="white"/>
</g>
<defs>
<filter id="filter0_d" x="0.759705" y="0.853394" width="124.481" height="94.8928" filterUnits="userSpaceOnUse" color-interpolation-filters="sRGB">
<feFlood flood-opacity="0" result="BackgroundImageFix"/>
<feColorMatrix in="SourceAlpha" type="matrix" values="0 0 0 0 0 0 0 0 0 0 0 0 0 0 0 0 0 0 127 0"/>
<feOffset dy="4"/>
<feGaussianBlur stdDeviation="4.5"/>
<feColorMatrix type="matrix" values="0 0 0 0 0.120556 0 0 0 0 0.233333 0 0 0 0 0.140458 0 0 0 1 0"/>
<feBlend mode="normal" in2="BackgroundImageFix" result="effect1_dropShadow"/>
<feBlend mode="normal" in="SourceGraphic" in2="effect1_dropShadow" result="shape"/>
</filter>
</defs>
</svg>
