<svg width="151" height="101" viewBox="0 0 151 101" fill="none" xmlns="http://www.w3.org/2000/svg">
<g filter="url(#filter0_d)">
<path d="M140.233 29.984L76.8323 5.19281C76.1937 4.94655 75.4862 4.94655 74.8476 5.19281L11.4465 29.984C10.9323 30.1871 10.4912 30.5399 10.1803 30.9968C9.86937 31.4536 9.70312 31.9933 9.70312 32.5458C9.70312 33.0982 9.86937 33.6379 10.1803 34.0948C10.4912 34.5516 10.9323 34.9045 11.4465 35.1075L31.7348 43.0407V68.1349C31.7348 74.7459 55.5516 87.6373 75.8399 87.6373C96.1283 87.6373 119.945 74.7459 119.945 68.1349V43.0407L128.215 39.7903V66.2342C126.408 67.2686 124.932 68.7928 123.956 70.6305C122.981 72.4683 122.546 74.5445 122.702 76.619C122.702 82.7893 126.34 87.6373 130.971 87.6373C135.602 87.6373 139.241 82.7893 139.241 76.619C139.372 74.5518 138.926 72.4888 137.952 70.6601C136.979 68.8313 135.516 67.3086 133.728 66.2618V37.6417L140.178 35.1075C140.692 34.9045 141.134 34.5516 141.444 34.0948C141.755 33.6379 141.922 33.0982 141.922 32.5458C141.922 31.9933 141.755 31.4536 141.444 30.9968C141.134 30.5399 140.692 30.1871 140.178 29.984H140.233ZM114.432 67.8319C112.668 70.8619 94.8327 82.1282 75.8399 82.1282C56.8472 82.1282 39.0122 70.8619 37.248 67.8319V45.2168L74.8476 59.8987C75.4862 60.145 76.1937 60.145 76.8323 59.8987L114.432 45.2168V67.8319ZM75.5643 32.5458L120.303 37.0082L75.8399 54.3896L19.9919 32.5458L75.8399 10.702L131.688 32.5458H131.495H131.302L76.1707 27.0366C75.4396 26.9636 74.7094 27.1837 74.1408 27.6486C73.5721 28.1136 73.2116 28.7852 73.1385 29.5157C73.0654 30.2463 73.2857 30.9759 73.7509 31.5442C74.2162 32.1124 74.8883 32.4727 75.6194 32.5458H75.5643ZM130.971 82.1282C129.841 82.1282 128.215 79.9796 128.215 76.619C128.215 73.2584 129.841 71.1098 130.971 71.1098C132.101 71.1098 133.728 73.2584 133.728 76.619C133.728 79.9796 132.101 82.1282 130.971 82.1282Z" fill="white"/>
</g>
<defs>
<filter id="filter0_d" x="0.703125" y="0.00811768" width="150.218" height="100.629" filterUnits="userSpaceOnUse" color-interpolation-filters="sRGB">
<feFlood flood-opacity="0" result="BackgroundImageFix"/>
<feColorMatrix in="SourceAlpha" type="matrix" values="0 0 0 0 0 0 0 0 0 0 0 0 0 0 0 0 0 0 127 0"/>
<feOffset dy="4"/>
<feGaussianBlur stdDeviation="4.5"/>
<feColorMatrix type="matrix" values="0 0 0 0 0 0 0 0 0 0.14902 0 0 0 0 0.258824 0 0 0 1 0"/>
<feBlend mode="normal" in2="BackgroundImageFix" result="effect1_dropShadow"/>
<feBlend mode="normal" in="SourceGraphic" in2="effect1_dropShadow" result="shape"/>
</filter>
</defs>
</svg>
