<svg width="40" height="39" viewBox="0 0 40 39" fill="none" xmlns="http://www.w3.org/2000/svg">
<path d="M21.9573 38.8475C21.8717 38.8475 21.7855 38.8297 21.7042 38.7936C21.4797 38.6937 21.335 38.4708 21.335 38.2248V32.4947C21.335 31.22 22.3842 30.1833 23.674 30.1833H30.2018C30.4596 30.1833 30.6909 30.3421 30.7831 30.583C30.8756 30.8237 30.8099 31.0964 30.6184 31.2689L22.3742 38.6881C22.2575 38.7927 22.1083 38.8475 21.9573 38.8475ZM23.6737 31.4283C23.0707 31.4283 22.58 31.9065 22.58 32.4943V36.8266L28.5788 31.4283H23.6737V31.4283Z" fill="#61A60E"/>
<path d="M21.9576 38.8475H3.83035C1.9505 38.8475 0.420898 37.3381 0.420898 35.4829V3.60638C0.420898 1.75112 1.9505 0.24176 3.83035 0.24176H27.425C29.3048 0.24176 30.8344 1.75112 30.8344 3.60638V9.95048C30.8344 10.2942 30.5555 10.5732 30.2118 10.5732C29.8681 10.5732 29.5891 10.2942 29.5891 9.95048V3.60638C29.5891 2.43762 28.618 1.48711 27.425 1.48711H3.83035C2.63699 1.48711 1.66624 2.43762 1.66624 3.60638V35.4832C1.66624 36.6516 2.63699 37.6022 3.83035 37.6022H21.7191L29.5891 30.5283V17.3338C29.5891 16.9901 29.8681 16.7112 30.2118 16.7112C30.5555 16.7112 30.8344 16.9901 30.8344 17.3338V30.8057C30.8344 30.9822 30.7594 31.1506 30.628 31.2686L22.3742 38.6878C22.2596 38.7905 22.1114 38.8475 21.9576 38.8475Z" fill="#61A60E"/>
<path d="M18.5777 20.5842H6.36486C6.02115 20.5842 5.74219 20.3052 5.74219 19.9615C5.74219 19.6178 6.02115 19.3388 6.36486 19.3388H18.5777C18.9214 19.3388 19.2003 19.6178 19.2003 19.9615C19.2003 20.3052 18.9214 20.5842 18.5777 20.5842Z" fill="#61A60E"/>
<path d="M23.2692 15.7646H6.36486C6.02115 15.7646 5.74219 15.4857 5.74219 15.142C5.74219 14.7982 6.02115 14.5193 6.36486 14.5193H23.2692C23.6129 14.5193 23.8919 14.7982 23.8919 15.142C23.8919 15.4857 23.6132 15.7646 23.2692 15.7646Z" fill="#61A60E"/>
<path d="M18.1947 25.0621H6.36486C6.02115 25.0621 5.74219 24.7832 5.74219 24.4394C5.74219 24.0957 6.02115 23.8168 6.36486 23.8168H18.1947C18.5384 23.8168 18.8174 24.0957 18.8174 24.4394C18.8174 24.7832 18.5384 25.0621 18.1947 25.0621Z" fill="#61A60E"/>
<path d="M17.1936 29.54H6.36535C6.02163 29.54 5.74268 29.2611 5.74268 28.9174C5.74268 28.5736 6.02163 28.2947 6.36535 28.2947H17.1936C17.5374 28.2947 17.8163 28.5736 17.8163 28.9174C17.8163 29.2611 17.5374 29.54 17.1936 29.54Z" fill="#61A60E"/>
<path d="M24.2042 10.7945H6.36584C6.02212 10.7945 5.74316 10.5155 5.74316 10.1718C5.74316 9.82809 6.02212 9.54913 6.36584 9.54913H24.2042C24.5479 9.54913 24.8269 9.82809 24.8269 10.1718C24.8269 10.5155 24.5482 10.7945 24.2042 10.7945Z" fill="#61A60E"/>
<path d="M36.2496 10.9455C36.108 10.9455 35.9654 10.8975 35.8489 10.7991L32.1431 7.6786C32.0155 7.57118 31.9361 7.41707 31.9233 7.25051C31.9102 7.08425 31.9647 6.91956 32.0743 6.79378L33.7101 4.9133C34.1397 4.41921 34.7281 4.12033 35.3664 4.07145C36.0052 4.02288 36.6316 4.22836 37.1329 4.65054L38.2459 5.58797C38.6992 5.96967 38.9738 6.50455 39.0196 7.09422C39.065 7.68233 38.877 8.25114 38.49 8.69604L36.7191 10.7316C36.5968 10.8729 36.4237 10.9455 36.2496 10.9455ZM33.4289 7.13345L36.1821 9.45197L37.5507 7.87879C37.717 7.68762 37.7976 7.44323 37.778 7.19073C37.7584 6.93637 37.6394 6.70536 37.4436 6.54066L36.3306 5.60323C36.0803 5.39245 35.7733 5.28909 35.461 5.31337C35.1509 5.33703 34.8629 5.48523 34.6494 5.73056L33.4289 7.13345ZM38.0208 8.28726H38.0239H38.0208Z" fill="#61A60E"/>
<path d="M17.4274 29.5827C17.1367 29.5827 16.8468 29.4827 16.6164 29.2885C16.207 28.9438 16.0666 28.4214 16.2503 27.9251L18.0159 23.1215C18.0744 22.9344 18.1902 22.8018 18.2544 22.728L18.6529 22.2697C18.8783 22.0104 19.2715 21.9826 19.5315 22.2084C19.7908 22.4341 19.8182 22.8273 19.5928 23.087L19.194 23.5456C19.1902 23.5496 19.1865 23.554 19.1821 23.5586L17.4346 28.3131L21.9714 25.8824C21.9758 25.8775 21.9795 25.8728 21.9835 25.8684L22.3824 25.4098C22.6084 25.1505 23.0016 25.1234 23.261 25.3485C23.5203 25.5742 23.5477 25.9674 23.3223 26.2271L22.9235 26.6857C22.8593 26.7592 22.7445 26.8915 22.5685 26.9756L18.0162 29.4345C17.8325 29.5341 17.6298 29.5827 17.4274 29.5827ZM19.2102 23.4715C19.2102 23.4715 19.2102 23.4718 19.2102 23.4721C19.2102 23.4721 19.2102 23.4718 19.2102 23.4715Z" fill="#61A60E"/>
<path d="M19.122 23.3012C18.971 23.3012 18.8194 23.2464 18.6998 23.1359C18.447 22.9024 18.4314 22.5085 18.6649 22.256L20.6721 20.0829L32.0577 6.85887C32.2837 6.59953 32.6769 6.57244 32.9363 6.79785C33.1956 7.02357 33.223 7.41679 32.9973 7.67644L32.2791 8.5018L21.6015 20.9117L19.5796 23.101C19.457 23.2339 19.2898 23.3012 19.122 23.3012Z" fill="#61A60E"/>
<path d="M22.8511 26.4416C22.7044 26.4416 22.5569 26.3899 22.4382 26.285C22.1808 26.0568 22.1571 25.6633 22.3853 25.4058L24.3458 23.1934L35.7401 9.96009C35.9658 9.70105 36.359 9.67366 36.6187 9.89906C36.878 10.1248 36.9054 10.518 36.6797 10.7777L36.3407 11.1674L25.2839 24.0126L23.3175 26.2318C23.1942 26.3706 23.0232 26.4416 22.8511 26.4416Z" fill="#61A60E"/>
<path d="M22.8515 26.4416C22.7099 26.4416 22.5676 26.3937 22.4508 26.2953L18.7216 23.1548C18.4585 22.9335 18.4249 22.5406 18.6463 22.2775C18.8676 22.0144 19.2606 21.9808 19.5236 22.2021L23.2528 25.3426C23.5159 25.5639 23.5495 25.9569 23.3282 26.2199C23.2049 26.3663 23.0287 26.4416 22.8515 26.4416Z" fill="#61A60E"/>
</svg>
