<svg width="45" height="47" viewBox="0 0 45 47" fill="none" xmlns="http://www.w3.org/2000/svg">
<path d="M43.9082 0.577393H1.15964C0.765645 0.577393 0.420898 0.922139 0.420898 1.31613V35.2983C0.420898 35.6922 0.765645 36.037 1.15964 36.037H16.6732L14.9002 44.8526C14.851 45.1481 14.9495 45.4436 15.1957 45.5914C15.442 45.7391 15.7867 45.7391 16.033 45.5914L18.4462 44.0154L20.0714 46.3794C20.2192 46.5764 20.4162 46.7241 20.6624 46.7241C20.7117 46.7241 20.7609 46.7241 20.8102 46.7241C21.1057 46.6749 21.3519 46.4286 21.4012 46.1331L22.5339 40.4202L23.6666 46.1824C23.7159 46.4779 23.9621 46.7241 24.2576 46.7734C24.3069 46.7734 24.3561 46.7734 24.4054 46.7734C24.6516 46.7734 24.8979 46.6749 24.9964 46.4286L26.6216 44.0154L29.0348 45.6406C29.2811 45.7884 29.6258 45.7884 29.8721 45.6406C30.1183 45.4929 30.2661 45.1974 30.1676 44.9019L28.4438 36.037H43.9574C44.3514 36.037 44.6962 35.6922 44.6962 35.2983V1.31613C44.6469 0.922139 44.3022 0.577393 43.9082 0.577393ZM39.2295 25.7439C39.131 25.7439 39.0325 25.7931 38.934 25.7931C38.8847 25.7931 38.8355 25.7931 38.7862 25.8424C38.6385 25.8916 38.4415 25.9409 38.2937 25.9901C38.2445 25.9901 38.2445 25.9901 38.1952 26.0394C38.0475 26.0886 37.8997 26.1379 37.8012 26.1871C37.752 26.1871 37.7027 26.2364 37.6535 26.2364C37.555 26.2856 37.4565 26.3349 37.358 26.3841C37.3087 26.4334 37.2595 26.4334 37.2102 26.4826C37.1117 26.5319 37.0132 26.5811 36.9147 26.6304C36.8655 26.6796 36.8162 26.6796 36.767 26.7289C36.6685 26.7781 36.57 26.8766 36.4715 26.9258C36.4222 26.9751 36.373 26.9751 36.373 27.0243C36.1267 27.2213 35.8805 27.4676 35.6343 27.7631C35.585 27.8123 35.585 27.8616 35.5358 27.8616C35.4865 27.9601 35.388 28.0586 35.3388 28.1571C35.2895 28.2063 35.2895 28.2556 35.2403 28.3048C35.191 28.4033 35.1418 28.5018 35.0925 28.6003C35.0433 28.6496 35.0433 28.6988 34.994 28.7481C34.9448 28.8466 34.8955 28.9451 34.8463 29.0436C34.8463 29.0928 34.797 29.1421 34.797 29.1913C34.7478 29.3391 34.6985 29.4376 34.6493 29.5853C34.6493 29.6346 34.6493 29.6346 34.6 29.6838C34.5508 29.8316 34.5015 30.0286 34.4523 30.1763C34.4523 30.2256 34.4523 30.2748 34.403 30.3241C34.403 30.4226 34.3538 30.5211 34.3538 30.6196H28.0006C26.9171 28.6988 24.8979 27.3691 22.5339 27.3691C20.1699 27.3691 18.1015 28.6988 17.0672 30.6196H10.714C10.3693 28.1078 8.35006 26.0886 5.83834 25.7439V10.8705C8.35006 10.5258 10.3693 8.50655 10.714 5.99483H34.3538C34.6985 8.50655 36.7177 10.5258 39.2295 10.8705V25.7439ZM20.2684 44.1139L19.2342 42.5872C19.0864 42.3902 18.8402 42.2424 18.6432 42.2424C18.4954 42.2424 18.3477 42.2917 18.2492 42.3409L16.7225 43.3259L17.8552 37.6622C18.6924 38.6472 19.8744 39.3367 21.2042 39.6322L20.2684 44.1139ZM18.1507 35.446C17.9045 34.855 17.7567 34.264 17.7567 33.6238C17.7567 31.0136 19.9237 28.8466 22.5339 28.8466C25.1441 28.8466 27.3111 31.0136 27.3111 33.6238C27.3111 34.264 27.1633 34.9043 26.9171 35.446C26.2276 37.0712 24.7009 38.1547 22.9771 38.3517H22.0907C20.3177 38.204 18.7909 37.0712 18.1507 35.446ZM26.8186 42.4394C26.6709 42.3409 26.4739 42.2917 26.2769 42.3409C26.0799 42.3902 25.9321 42.4887 25.7844 42.6364L24.7501 44.1632L23.8636 39.7307C25.1441 39.4352 26.3261 38.7457 27.2126 37.7607L28.3453 43.5229L26.8186 42.4394ZM43.1694 34.5595H28.6901C28.7393 34.264 28.7886 33.9193 28.7886 33.6238C28.7886 33.082 28.7393 32.5895 28.5916 32.097H35.0433C35.4373 32.097 35.782 31.7523 35.782 31.3583C35.782 29.0436 37.6535 27.1721 39.9682 27.1721C40.3622 27.1721 40.7069 26.8273 40.7069 26.4334V10.181C40.7069 9.78704 40.3622 9.44229 39.9682 9.44229C37.6535 9.44229 35.782 7.57081 35.782 5.25609C35.782 4.86209 35.4373 4.51735 35.0433 4.51735H10.0245C9.63054 4.51735 9.2858 4.86209 9.2858 5.25609C9.2858 7.57081 7.41432 9.44229 5.0996 9.44229C4.7056 9.44229 4.36085 9.78704 4.36085 10.181V26.4334C4.36085 26.8273 4.7056 27.1721 5.0996 27.1721C7.41432 27.1721 9.2858 29.0436 9.2858 31.3583C9.2858 31.7523 9.63054 32.097 10.0245 32.097H16.4762C16.3285 32.5895 16.2792 33.082 16.2792 33.6238C16.2792 33.9685 16.3285 34.264 16.3777 34.5595H1.89838V2.05488H43.1694V34.5595V34.5595Z" fill="#61A60E"/>
<path d="M31.4971 11.6644H13.5703V13.1419H31.4971V11.6644Z" fill="#61A60E"/>
<path d="M31.4971 16.7036H13.5703V18.1811H31.4971V16.7036Z" fill="#61A60E"/>
<path d="M31.4971 21.7429H13.5703V23.2204H31.4971V21.7429Z" fill="#61A60E"/>
</svg>
